<svg width="36" height="36" viewBox="0 0 36 36" fill="none" xmlns="http://www.w3.org/2000/svg">
<path d="M15 27C17.6625 26.9995 20.2482 26.1081 22.3455 24.468L28.9395 31.062L31.0605 28.941L24.4665 22.347C26.1075 20.2495 26.9994 17.6632 27 15C27 8.3835 21.6165 3 15 3C8.3835 3 3 8.3835 3 15C3 21.6165 8.3835 27 15 27ZM15 6C19.9635 6 24 10.0365 24 15C24 19.9635 19.9635 24 15 24C10.0365 24 6 19.9635 6 15C6 10.0365 10.0365 6 15 6Z" fill="#828282"/>
<path d="M17.118 12.879C17.6865 13.449 18 14.202 18 15H21C21.0013 14.2116 20.8464 13.4308 20.5441 12.7027C20.2418 11.9746 19.7983 11.3136 19.239 10.758C16.968 8.49001 13.0305 8.49001 10.761 10.758L12.879 12.882C14.019 11.745 15.984 11.748 17.118 12.879Z" fill="#828282"/>
</svg>
